<svg width="348" height="348" viewBox="0 0 348 348" fill="none" xmlns="http://www.w3.org/2000/svg">
<g clip-path="url(#clip0_103_91)">
<path d="M185.201 22.1633C181.474 21.8881 177.738 21.7502 174 21.75V0C178.275 0.00208425 182.548 0.161693 186.811 0.4785L185.201 22.1633ZM228.788 31.9507C221.816 29.2604 214.656 27.0868 207.365 25.4475L212.128 4.2195C220.458 6.09 228.658 8.5695 236.618 11.658L228.788 31.9507V31.9507ZM258.586 47.3932C255.476 45.3194 252.291 43.3605 249.037 41.5208L259.76 22.5983C267.197 26.812 274.314 31.5663 281.053 36.8227L267.677 53.9835C264.729 51.683 261.696 49.492 258.586 47.415V47.3932ZM298.475 86.3258C294.173 80.2135 289.426 74.4268 284.272 69.0128L300.019 54.0053C305.892 60.204 311.33 66.8377 316.267 73.7977L298.475 86.3258V86.3258ZM314.657 115.732C313.23 112.283 311.677 108.888 310.003 105.553L329.425 95.7652C333.267 103.401 336.538 111.311 339.213 119.429L318.55 126.237C317.382 122.689 316.083 119.185 314.657 115.732V115.732ZM326.185 170.259C326.009 162.784 325.282 155.333 324.01 147.965L345.433 144.268C346.891 152.663 347.739 161.189 347.957 169.715L326.207 170.259H326.185ZM323.336 203.711C324.053 200.013 324.64 196.337 325.097 192.618L346.695 195.293C345.65 203.779 343.978 212.176 341.693 220.414L320.726 214.607C321.726 211.018 322.596 207.386 323.336 203.711V203.711ZM302.629 255.454C306.631 249.146 310.155 242.534 313.2 235.705L333.08 244.513C329.6 252.343 325.576 259.869 321.008 267.09L302.629 255.454ZM281.662 281.662C284.316 279.009 286.861 276.268 289.275 273.441L305.761 287.644C302.97 290.881 300.06 294.015 297.04 297.04L281.662 281.662V281.662Z" fill="white"/>
<path d="M173.999 21.75C148.962 21.7518 124.312 27.928 102.232 39.7316C80.1524 51.5351 61.3242 68.6017 47.4153 89.4197C33.5065 110.238 24.9462 134.164 22.4928 159.081C20.0394 183.997 23.7686 209.134 33.35 232.265C42.9315 255.396 58.0695 275.807 77.4231 291.69C96.7768 307.574 119.749 318.439 144.305 323.324C168.86 328.209 194.242 326.963 218.201 319.696C242.16 312.429 263.957 299.365 281.662 281.663L297.039 297.04C276.806 317.284 251.891 332.225 224.503 340.54C197.116 348.854 168.1 350.284 140.027 344.705C111.954 339.125 85.691 326.706 63.5645 308.55C41.4381 290.394 24.1315 267.061 13.1782 240.618C2.22485 214.175 -2.037 185.438 0.770221 156.954C3.57745 128.47 13.3671 101.118 29.2717 77.3217C45.1763 53.5254 66.7049 34.0194 91.95 20.5321C117.195 7.04472 145.377 -0.00758493 173.999 6.12172e-06V21.75Z" fill="white"/>
<path d="M163.125 65.25C166.009 65.25 168.775 66.3958 170.815 68.4352C172.854 70.4747 174 73.2408 174 76.125V189.443L244.644 229.811C247.075 231.277 248.837 233.637 249.552 236.385C250.266 239.134 249.878 242.052 248.469 244.518C247.06 246.983 244.742 248.8 242.012 249.58C239.281 250.359 236.354 250.04 233.856 248.69L157.731 205.19C156.067 204.239 154.683 202.865 153.72 201.207C152.758 199.55 152.251 197.667 152.25 195.75V76.125C152.25 73.2408 153.396 70.4747 155.435 68.4352C157.475 66.3958 160.241 65.25 163.125 65.25V65.25Z" fill="white"/>
</g>
<defs>
<clipPath id="clip0_103_91">
<rect width="348" height="348" fill="white"/>
</clipPath>
</defs>
</svg>
