<svg width="36" height="36" viewBox="0 0 36 36" fill="none" xmlns="http://www.w3.org/2000/svg">
<path d="M13.5 7.2002C13.5 6.00672 13.9741 4.86213 14.818 4.01821C15.6619 3.1743 16.8065 2.7002 18 2.7002C19.1935 2.7002 20.3381 3.1743 21.182 4.01821C22.0259 4.86213 22.5 6.00672 22.5 7.2002H30.6C30.8387 7.2002 31.0676 7.29502 31.2364 7.4638C31.4052 7.63258 31.5 7.8615 31.5 8.10019C31.5 8.33889 31.4052 8.56781 31.2364 8.73659C31.0676 8.90537 30.8387 9.0002 30.6 9.0002H29.6028L27.9414 23.4002H26.1288L27.7884 9.0002H8.2098L10.5174 29.0072C10.5682 29.446 10.7786 29.8508 11.1085 30.1446C11.4384 30.4383 11.8649 30.6005 12.3066 30.6002H21.753C21.8718 30.935 22.0554 31.241 22.2876 31.5002C22.0536 31.7594 21.8736 32.0654 21.753 32.4002H12.3066C11.4234 32.4003 10.571 32.0758 9.91155 31.4883C9.25208 30.9009 8.83156 30.0915 8.73 29.2142L6.3954 9.0002H5.4C5.18935 9.00027 4.98536 8.92645 4.82353 8.79159C4.66171 8.65674 4.55232 8.4694 4.5144 8.2622L4.5 8.10019C4.5 7.8615 4.59482 7.63258 4.7636 7.4638C4.93239 7.29502 5.16131 7.2002 5.4 7.2002H13.5ZM20.7 7.2002C20.7 6.48411 20.4155 5.79736 19.9092 5.29101C19.4028 4.78466 18.7161 4.5002 18 4.5002C17.2839 4.5002 16.5972 4.78466 16.0908 5.29101C15.5845 5.79736 15.3 6.48411 15.3 7.2002H20.7ZM24.3 28.8002C24.0613 28.8002 23.8324 28.895 23.6636 29.0638C23.4948 29.2326 23.4 29.4615 23.4 29.7002C23.4 29.9389 23.4948 30.1678 23.6636 30.3366C23.8324 30.5054 24.0613 30.6002 24.3 30.6002H33.3C33.5387 30.6002 33.7676 30.5054 33.9364 30.3366C34.1052 30.1678 34.2 29.9389 34.2 29.7002C34.2 29.4615 34.1052 29.2326 33.9364 29.0638C33.7676 28.895 33.5387 28.8002 33.3 28.8002H24.3ZM24.3 25.2002C24.0613 25.2002 23.8324 25.295 23.6636 25.4638C23.4948 25.6326 23.4 25.8615 23.4 26.1002C23.4 26.3389 23.4948 26.5678 23.6636 26.7366C23.8324 26.9054 24.0613 27.0002 24.3 27.0002H33.3C33.5387 27.0002 33.7676 26.9054 33.9364 26.7366C34.1052 26.5678 34.2 26.3389 34.2 26.1002C34.2 25.8615 34.1052 25.6326 33.9364 25.4638C33.7676 25.295 33.5387 25.2002 33.3 25.2002H24.3ZM23.4 33.3002C23.4 33.0615 23.4948 32.8326 23.6636 32.6638C23.8324 32.495 24.0613 32.4002 24.3 32.4002H33.3C33.5387 32.4002 33.7676 32.495 33.9364 32.6638C34.1052 32.8326 34.2 33.0615 34.2 33.3002C34.2 33.5389 34.1052 33.7678 33.9364 33.9366C33.7676 34.1054 33.5387 34.2002 33.3 34.2002H24.3C24.0613 34.2002 23.8324 34.1054 23.6636 33.9366C23.4948 33.7678 23.4 33.5389 23.4 33.3002Z" fill="#FF1D1D"/>
</svg>
