<svg width="44" height="44" viewBox="0 0 44 44" fill="none" xmlns="http://www.w3.org/2000/svg">
<path d="M30.2022 9.91533L34.0852 13.7965L30.2022 9.91533ZM32.6992 6.49616L22.1997 16.9957C21.6572 17.5374 21.2872 18.2276 21.1363 18.9793L20.1665 23.834L25.0212 22.8623C25.7728 22.712 26.4622 22.3435 27.0048 21.8008L37.5043 11.3013C37.8199 10.9858 38.0701 10.6112 38.2409 10.199C38.4116 9.78678 38.4995 9.34494 38.4995 8.89874C38.4995 8.45254 38.4116 8.01071 38.2409 7.59847C38.0701 7.18624 37.8199 6.81167 37.5043 6.49616C37.1888 6.18065 36.8143 5.93037 36.402 5.75962C35.9898 5.58886 35.548 5.50098 35.1018 5.50098C34.6556 5.50098 34.2137 5.58886 33.8015 5.75962C33.3892 5.93037 33.0147 6.18065 32.6992 6.49616V6.49616Z" stroke="white" stroke-width="4.66667" stroke-linecap="round" stroke-linejoin="round"/>
<path d="M34.8335 27.5013V33.0013C34.8335 33.9738 34.4472 34.9064 33.7596 35.594C33.0719 36.2817 32.1393 36.668 31.1668 36.668H11.0002C10.0277 36.668 9.09507 36.2817 8.40744 35.594C7.7198 34.9064 7.3335 33.9738 7.3335 33.0013V12.8346C7.3335 11.8622 7.7198 10.9295 8.40744 10.2419C9.09507 9.55428 10.0277 9.16797 11.0002 9.16797H16.5002" stroke="white" stroke-width="4.66667" stroke-linecap="round" stroke-linejoin="round"/>
</svg>
