<svg width="82" height="82" viewBox="0 0 82 82" fill="none" xmlns="http://www.w3.org/2000/svg">
<path d="M32.5358 57C31.5868 57 30.6737 56.6208 29.996 55.9453L24.9842 50.9261L18.8831 55.9812C18.5198 56.2828 18.1007 56.5097 17.6497 56.649C17.1986 56.7882 16.7246 56.8371 16.2548 56.7927C15.7849 56.7484 15.3283 56.6117 14.9113 56.3905C14.4942 56.1692 14.1248 55.8679 13.8242 55.5036C13.2172 54.7685 12.9264 53.8221 13.0159 52.8725C13.1053 51.9229 13.5676 51.0477 14.3012 50.4392L22.9246 43.2963C23.6133 42.7245 24.4905 42.431 25.3841 42.4733C26.2778 42.5155 27.1235 42.8906 27.7552 43.5249L31.9236 47.7016L41.1151 33.3635C41.4592 32.8209 41.9437 32.3818 42.517 32.0927C43.0903 31.8036 43.7311 31.6753 44.3714 31.7215C45.6735 31.8055 46.8282 32.5886 47.386 33.7734L52.8104 45.2591L63.2846 26.8181C63.7569 25.9898 64.5377 25.3826 65.4561 25.1294C66.3745 24.8762 67.3557 24.9977 68.1849 25.4672C69.0126 25.9404 69.6192 26.723 69.8715 27.6433C70.1239 28.5637 70.0014 29.5467 69.531 30.3767L55.6388 54.8343C55.311 55.4039 54.8346 55.8736 54.2606 56.1929C53.6867 56.5123 53.0368 56.6694 52.3805 56.6474C51.7228 56.6239 51.0844 56.4194 50.5352 56.0563C49.9861 55.6932 49.5474 55.1856 49.2675 54.5893L43.6589 42.709L35.5576 55.3426C35.2328 55.8501 34.7859 56.2678 34.2579 56.5574C33.7299 56.847 33.1378 56.9992 32.5358 57Z" fill="white"/>
</svg>
