<svg width="41" height="41" viewBox="0 0 41 41" fill="none" xmlns="http://www.w3.org/2000/svg">
<path d="M35.2742 17.7133H20.8081V23.6591H29.0722C28.7158 25.581 27.6348 27.2065 26.0052 28.2956C24.6278 29.2165 22.8701 29.761 20.8041 29.761C16.8042 29.761 13.4209 27.0584 12.2117 23.4269C11.9074 22.506 11.7313 21.521 11.7313 20.508C11.7313 19.495 11.9074 18.5101 12.2117 17.5892C13.4249 13.9616 16.8082 11.259 20.8081 11.259C23.0623 11.259 25.0843 12.0357 26.6778 13.5572L31.0821 9.14893C28.4195 6.6665 24.9481 5.14502 20.8081 5.14502C14.8063 5.14502 9.61318 8.58838 7.08672 13.6093C6.0457 15.6833 5.45312 18.0296 5.45312 20.512C5.45312 22.9944 6.0457 25.3367 7.08672 27.4107C9.61318 32.4316 14.8063 35.875 20.8081 35.875C24.9562 35.875 28.4315 34.4977 30.97 32.1514C33.8729 29.4768 35.5505 25.5369 35.5505 20.8563C35.5505 19.7673 35.4544 18.7223 35.2742 17.7133Z" fill="white"/>
</svg>
