<svg width="278" height="250" viewBox="0 0 278 250" fill="none" xmlns="http://www.w3.org/2000/svg">
<path d="M27.8 111.111V222.222H83.4V111.111H27.8ZM111.2 27.7778V222.222H166.8V27.7778H111.2ZM194.6 138.889V222.222H250.2V138.889H194.6ZM250.2 250H27.8C20.155 250 13.6127 247.282 8.1732 241.847C2.7244 236.403 0 229.861 0 222.222V111.111C0 103.472 2.7244 96.9306 8.1732 91.4861C13.6127 86.0509 20.155 83.3333 27.8 83.3333H83.4V27.7778C83.4 20.1389 86.1244 13.5972 91.5732 8.15278C97.0127 2.71759 103.555 0 111.2 0H166.8C174.445 0 180.992 2.71759 186.441 8.15278C191.88 13.5972 194.6 20.1389 194.6 27.7778V111.111H250.2C257.845 111.111 264.392 113.829 269.841 119.264C275.28 124.708 278 131.25 278 138.889V222.222C278 229.861 275.28 236.403 269.841 241.847C264.392 247.282 257.845 250 250.2 250Z" fill="white"/>
</svg>
