<svg width="39" height="38" viewBox="0 0 39 38" fill="none" xmlns="http://www.w3.org/2000/svg">
<path d="M33.6719 7.12975C33.6719 6.69418 33.5529 6.26701 33.3279 5.89495C33.1029 5.52289 32.7806 5.22028 32.3963 5.02021C32.012 4.82014 31.5804 4.73032 31.1487 4.76057C30.7171 4.79083 30.302 4.93999 29.9489 5.19175L13.434 16.9789C13.1273 17.1972 12.8767 17.4862 12.7033 17.8217C12.5299 18.1573 12.4385 18.5296 12.4369 18.9078C12.4353 19.2861 12.5234 19.6592 12.694 19.9962C12.8646 20.3332 13.1126 20.6244 13.4175 20.8454L29.9324 32.8082C30.2847 33.0641 30.7004 33.217 31.1335 33.2502C31.5667 33.2834 32.0005 33.1955 32.3873 32.9963C32.774 32.7971 33.0986 32.4943 33.3252 32.1213C33.5519 31.7482 33.6719 31.3194 33.6719 30.8821V7.12975ZM5.36062 5.9375C5.36062 5.62256 5.4849 5.32051 5.70612 5.09781C5.92735 4.87511 6.22739 4.75 6.54025 4.75C6.85311 4.75 7.15316 4.87511 7.37438 5.09781C7.59561 5.32051 7.71989 5.62256 7.71989 5.9375V32.0625C7.71989 32.3774 7.59561 32.6795 7.37438 32.9022C7.15316 33.1249 6.85311 33.25 6.54025 33.25C6.22739 33.25 5.92735 33.1249 5.70612 32.9022C5.4849 32.6795 5.36062 32.3774 5.36062 32.0625V5.9375Z" fill="white"/>
</svg>
