<svg width="200" height="55" viewBox="0 0 200 55" fill="none" xmlns="http://www.w3.org/2000/svg">
<circle cx="195.931" cy="6.06896" r="4.06896" fill="white"/>
<path d="M15.0475 3.84943C13.5678 3.47954 5.0755 4.39595 4.32015 13.8369C4.18156 15.5691 4.10203 17.5939 4.05291 20.441M4.32016 50.4575C4.13129 43.7528 3.89222 29.7538 4.05291 20.441M4.05291 20.441H14.3153M24.665 35.2914C24.4184 30.236 27.1064 20.0513 39.8311 19.7554C52.5559 19.4594 55.4904 29.9894 55.3671 35.2914C55.2438 40.2234 51.964 50.0136 39.8311 49.7177C27.6982 49.4217 24.665 39.9768 24.665 35.2914Z" stroke="white" stroke-width="7.3981" stroke-linecap="round"/>
<path d="M96.0564 24.1942C92.6039 20.2486 81.4967 14.2147 73.1222 24.934C63.8746 36.771 76.4515 60.4449 98.2758 44.9089" stroke="white" stroke-width="7.3981" stroke-linecap="round"/>
<path d="M111.963 19.0156V36.7711C111.963 40.84 114.552 49.4958 124.91 50.0876C135.267 50.6795 138.843 42.5662 139.336 38.6206V19.0156" stroke="white" stroke-width="7.3981" stroke-linecap="round"/>
<path d="M178.546 22.7147C174.816 20.1717 167.298 17.6287 161.762 19.8931C156.242 22.1507 156.362 30.2968 161.918 32.4635C164.13 33.326 167.04 34.0466 170.778 34.5516C181.727 36.0313 179.779 44.1692 177.436 47.4983C174.477 50.2109 166.043 53.4168 155.981 46.0187" stroke="white" stroke-width="7.3981" stroke-linecap="round"/>
<path d="M195.561 19.7554L195.561 49.3478" stroke="white" stroke-width="7.3981" stroke-linecap="round"/>
</svg>
