<svg width="44" height="44" viewBox="0 0 44 44" fill="none" xmlns="http://www.w3.org/2000/svg">
<path d="M3.66634 7.33268V29.3327H7.33301V7.33268L29.333 7.33268V3.66602L7.33301 3.66602C5.31084 3.66602 3.66634 5.31052 3.66634 7.33268Z" fill="white"/>
<path d="M40.333 36.6667V14.6667C40.333 12.6445 38.6885 11 36.6663 11L14.6663 11C12.6442 11 10.9997 12.6445 10.9997 14.6667V36.6667C10.9997 38.6888 12.6442 40.3333 14.6663 40.3333H36.6663C38.6885 40.3333 40.333 38.6888 40.333 36.6667ZM23.833 33V27.5H18.333V23.8333H23.833V18.3333H27.4997V23.8333H32.9997V27.5H27.4997V33H23.833Z" fill="white"/>
</svg>
