<svg width="38" height="38" viewBox="0 0 38 38" fill="none" xmlns="http://www.w3.org/2000/svg">
<path d="M4.71875 7.12975C4.71877 6.69418 4.83777 6.26701 5.06274 5.89495C5.28772 5.52289 5.61 5.22028 5.99433 5.02021C6.37867 4.82014 6.81026 4.73032 7.2419 4.76057C7.67354 4.79083 8.0886 4.93999 8.44168 5.19175L24.9566 16.9789C25.2634 17.1972 25.5139 17.4862 25.6873 17.8217C25.8608 18.1573 25.9521 18.5296 25.9537 18.9078C25.9553 19.2861 25.8672 19.6592 25.6966 19.9962C25.5261 20.3332 25.278 20.6244 24.9731 20.8454L8.4582 32.8082C8.10588 33.0641 7.69024 33.217 7.25708 33.2502C6.82393 33.2834 6.39008 33.1955 6.00336 32.9963C5.61663 32.7971 5.29205 32.4943 5.06538 32.1213C4.83872 31.7482 4.71876 31.3194 4.71875 30.8821V7.12975ZM33.03 5.9375C33.03 5.62256 32.9057 5.32051 32.6845 5.09781C32.4633 4.87511 32.1632 4.75 31.8504 4.75C31.5375 4.75 31.2375 4.87511 31.0162 5.09781C30.795 5.32051 30.6707 5.62256 30.6707 5.9375V32.0625C30.6707 32.3774 30.795 32.6795 31.0162 32.9022C31.2375 33.1249 31.5375 33.25 31.8504 33.25C32.1632 33.25 32.4633 33.1249 32.6845 32.9022C32.9057 32.6795 33.03 32.3774 33.03 32.0625V5.9375Z" fill="white"/>
</svg>
