<svg width="64" height="64" viewBox="0 0 64 64" fill="none" xmlns="http://www.w3.org/2000/svg">
<path d="M20.5601 10.5601L14.0001 17.1261L11.4401 14.5661L8.56006 17.4401L12.5601 21.4401L14.0001 22.8121L15.4401 21.4381L23.4401 13.4381L20.5601 10.5581V10.5601ZM30.0001 14.0001V18.0001H56.0001V14.0001H30.0001ZM20.5601 26.5601L14.0001 33.1281L11.4401 30.5601L8.56006 33.4401L12.5601 37.4401L14.0001 38.8121L15.4401 37.4381L23.4401 29.4381L20.5601 26.5581V26.5601ZM30.0001 30.0001V34.0001H56.0001V30.0001H30.0001ZM20.5601 42.5601L14.0001 49.1261L11.4401 46.5661L8.56006 49.4401L12.5601 53.4401L14.0001 54.8121L15.4401 53.4381L23.4401 45.4381L20.5601 42.5581V42.5601ZM30.0001 46.0001V50.0001H56.0001V46.0001H30.0001Z" fill="white"/>
</svg>
